HIERARCHY
ROOT Hips
{
	OFFSET	0.000000	0.000000	0.000000
	CHANNELS	6	Xposition	Yposition	Zposition	Zrotation	Xrotation	Yrotation
	JOINT LeftHip
	{
		OFFSET	15.500000	-8.200000	0.000000
		CHANNELS	3	Zrotation	Xrotation	Yrotation
		JOINT LeftKnee
		{
			OFFSET	0.000000	-41.000000	0.000000
			CHANNELS	3	Zrotation	Xrotation	Yrotation
			JOINT LeftAnkle
			{
				OFFSET	0.000000	-41.500000	0.000000
				CHANNELS	3	Zrotation	Xrotation	Yrotation
				End Site
				{
					OFFSET	0.000000	0.000000	22.875000
				}
			}
		}
	}
	JOINT RightHip
	{
		OFFSET	-15.500000	-8.200000	0.000000
		CHANNELS	3	Zrotation	Xrotation	Yrotation
		JOINT RightKnee
		{
			OFFSET	0.000000	-41.000000	0.000000
			CHANNELS	3	Zrotation	Xrotation	Yrotation
			JOINT RightAnkle
			{
				OFFSET	0.000000	-41.500000	0.000000
				CHANNELS	3	Zrotation	Xrotation	Yrotation
				End Site
				{
					OFFSET	0.000000	0.000000	22.875000
				}
			}
		}
	}
	JOINT Chest
	{
		OFFSET	0.000000	16.666667	0.000000
		CHANNELS	3	Zrotation	Xrotation	Yrotation
		JOINT LeftCollar
		{
			OFFSET	4.625000	33.333333	1.541667
			CHANNELS	3	Zrotation	Xrotation	Yrotation
			JOINT LeftShoulder
			{
				OFFSET	13.875000	0.000000	0.000000
				CHANNELS	3	Zrotation	Xrotation	Yrotation
				JOINT LeftElbow
				{
					OFFSET	0.000000	-28.000000	0.000000
					CHANNELS	3	Zrotation	Xrotation	Yrotation
					JOINT LeftWrist
					{
						OFFSET	0.000000	-25.000000	0.000000
						CHANNELS	3	Zrotation	Xrotation	Yrotation
						End Site
						{
							OFFSET	0.000000	-7.500000	0.000000
						}
					}
				}
			}
		}
		JOINT RightCollar
		{
			OFFSET	-4.625000	33.333333	1.541667
			CHANNELS	3	Zrotation	Xrotation	Yrotation
			JOINT RightShoulder
			{
				OFFSET	-13.875000	0.000000	0.000000
				CHANNELS	3	Zrotation	Xrotation	Yrotation
				JOINT RightElbow
				{
					OFFSET	0.000000	-28.000000	0.000000
					CHANNELS	3	Zrotation	Xrotation	Yrotation
					JOINT RightWrist
					{
						OFFSET	0.000000	-25.000000	0.000000
						CHANNELS	3	Zrotation	Xrotation	Yrotation
						End Site
						{
							OFFSET	0.000000	-7.500000	0.000000
						}
					}
				}
			}
		}
		JOINT Neck
		{
			OFFSET	0.000000	33.333333	0.000000
			CHANNELS	3	Zrotation	Xrotation	Yrotation
			JOINT Head
			{
				OFFSET	0.000000	12.000000	0.000000
				CHANNELS	3	Zrotation	Xrotation	Yrotation
				End Site
				{
					OFFSET	0.000000	15.000000	0.000000
				}
			}
		}
	}
}
MOTION
Frames:	35
Frame Time:	0.012000
8.37	102.59	-73.44	0.04	0.61	-26.71	-4.05	-2.36	4.96	0.00	1.91	0.00	1.24	32.86	1.05	-0.03	-3.53	-5.22	0.00	4.96	0.00	-6.94	29.12	4.07	0.81	-0.27	-0.34	0.00	0.00	0.00	-1.46	-5.50	1.10	-0.99	0.75	-8.87	2.73	0.84	0.00	0.00	0.00	0.00	1.24	-1.99	-6.51	-2.79	-2.66	9.57	0.24	0.30	0.00	0.00	0.00	0.00	8.83	-2.00	22.66
8.39	102.59	-73.42	0.03	0.60	-26.71	-4.05	-2.35	4.95	0.00	1.88	0.00	1.23	32.85	1.05	-0.03	-3.54	-5.23	0.00	5.01	0.00	-6.97	29.13	4.07	0.79	-0.27	-0.37	0.00	0.00	0.00	-1.47	-5.52	1.12	-0.97	0.73	-8.83	2.73	0.83	0.00	0.00	0.00	0.00	1.20	-1.98	-6.48	-2.77	-2.80	9.41	0.24	0.30	0.00	0.00	0.00	0.00	8.93	-1.95	22.65
8.41	102.60	-73.41	0.03	0.60	-26.71	-4.05	-2.34	4.93	0.00	1.85	0.00	1.24	32.87	1.05	-0.04	-3.55	-5.25	0.00	5.06	0.00	-7.01	29.12	4.03	0.80	-0.25	-0.39	0.00	0.00	0.00	-1.38	-5.54	1.09	-1.00	0.72	-8.78	2.74	0.83	0.00	0.00	0.00	0.00	1.22	-1.98	-6.46	-2.83	-2.81	9.34	0.25	0.29	0.00	0.00	0.00	0.00	8.92	-1.97	22.67
8.42	102.61	-73.38	0.03	0.60	-26.71	-4.05	-2.32	4.94	0.00	1.84	0.00	1.23	32.88	1.06	-0.04	-3.53	-5.27	0.00	5.10	0.00	-7.02	29.10	4.05	0.81	-0.22	-0.42	0.00	0.00	0.00	-1.36	-5.53	1.06	-1.01	0.72	-8.75	2.75	0.82	0.00	0.00	0.00	0.00	1.25	-1.96	-6.45	-2.89	-2.83	9.25	0.25	0.29	0.00	0.00	0.00	0.00	8.91	-1.99	22.70
8.41	102.61	-73.32	0.03	0.63	-26.72	-4.05	-2.30	4.92	0.00	1.82	0.00	1.24	32.90	1.06	-0.05	-3.54	-5.28	0.00	5.13	0.00	-7.02	29.06	4.05	0.82	-0.21	-0.44	0.00	0.00	0.00	-1.34	-5.54	1.03	-1.03	0.71	-8.73	2.74	0.82	0.00	0.00	0.00	0.00	1.26	-1.96	-6.43	-2.94	-2.83	9.17	0.26	0.29	0.00	0.00	0.00	0.00	9.00	-2.00	22.67
8.41	102.62	-73.23	0.03	0.63	-26.72	-4.05	-2.30	4.93	0.00	1.81	0.00	1.25	32.90	1.03	-0.05	-3.52	-5.29	0.00	5.15	0.00	-7.00	29.00	4.08	0.81	-0.20	-0.46	0.00	0.00	0.00	-1.35	-5.55	1.04	-1.02	0.71	-8.70	2.75	0.82	0.00	0.00	0.00	0.00	1.25	-1.96	-6.41	-2.95	-2.83	9.11	0.26	0.30	0.00	0.00	0.00	0.00	9.01	-2.01	22.69
8.40	102.62	-73.21	0.03	0.63	-26.72	-4.06	-2.29	4.92	0.00	1.77	0.00	1.27	32.92	1.01	-0.06	-3.54	-5.29	0.00	5.20	0.00	-7.00	28.99	4.08	0.79	-0.19	-0.46	0.00	0.00	0.00	-1.38	-5.55	1.05	-0.96	0.70	-8.70	2.74	0.82	0.00	0.00	0.00	0.00	1.20	-1.97	-6.36	-2.91	-2.83	9.06	0.26	0.30	0.00	0.00	0.00	0.00	9.03	-2.01	22.69
8.39	102.63	-73.19	0.05	0.65	-26.74	-4.05	-2.29	4.91	0.00	1.73	0.00	1.28	32.94	1.01	-0.06	-3.55	-5.29	0.00	5.24	0.00	-7.00	28.98	4.06	0.79	-0.19	-0.48	0.00	0.00	0.00	-1.36	-5.55	1.05	-0.99	0.71	-8.70	2.74	0.82	0.00	0.00	0.00	0.00	1.21	-1.98	-6.33	-2.97	-2.72	9.09	0.26	0.30	0.00	0.00	0.00	0.00	9.05	-2.03	22.68
8.36	102.63	-73.12	0.05	0.65	-26.74	-4.05	-2.28	4.90	0.00	1.71	0.00	1.29	32.96	1.01	-0.07	-3.56	-5.29	0.00	5.27	0.00	-6.99	28.99	4.04	0.78	-0.18	-0.50	0.00	0.00	0.00	-1.36	-5.56	1.06	-0.99	0.71	-8.72	2.74	0.83	0.00	0.00	0.00	0.00	1.20	-2.01	-6.28	-2.98	-2.70	9.01	0.27	0.30	0.00	0.00	0.00	0.00	9.06	-2.03	22.70
8.35	102.64	-73.11	0.05	0.65	-26.74	-4.05	-2.28	4.90	0.00	1.70	0.00	1.28	32.98	1.03	-0.06	-3.55	-5.28	0.00	5.29	0.00	-6.99	28.99	4.03	0.78	-0.17	-0.52	0.00	0.00	0.00	-1.37	-5.55	1.06	-1.00	0.72	-8.75	2.73	0.82	0.00	0.00	0.00	0.00	1.21	-2.01	-6.22	-2.99	-2.72	8.99	0.26	0.30	0.00	0.00	0.00	0.00	9.06	-2.04	22.72
8.33	102.65	-73.09	0.06	0.67	-26.74	-4.05	-2.28	4.90	0.00	1.66	0.00	1.27	32.99	1.04	-0.07	-3.56	-5.27	0.00	5.33	0.00	-6.98	28.96	4.03	0.77	-0.17	-0.53	0.00	0.00	0.00	-1.31	-5.60	1.05	-1.03	0.74	-8.78	2.72	0.83	0.00	0.00	0.00	0.00	1.21	-2.04	-6.15	-3.02	-2.71	8.94	0.27	0.31	0.00	0.00	0.00	0.00	9.12	-2.09	22.67
8.31	102.66	-73.05	0.06	0.67	-26.74	-4.05	-2.28	4.88	0.00	1.63	0.00	1.29	33.03	1.06	-0.07	-3.58	-5.28	0.00	5.38	0.00	-6.97	28.93	4.06	0.78	-0.17	-0.55	0.00	0.00	0.00	-1.28	-5.61	1.04	-1.06	0.77	-8.81	2.73	0.83	0.00	0.00	0.00	0.00	1.24	-2.06	-6.08	-3.06	-2.73	8.90	0.27	0.30	0.00	0.00	0.00	0.00	9.12	-2.09	22.69
8.31	102.66	-73.04	0.06	0.67	-26.74	-4.05	-2.26	4.88	0.00	1.60	0.00	1.29	33.05	1.05	-0.08	-3.61	-5.29	0.00	5.42	0.00	-6.98	28.91	4.07	0.78	-0.17	-0.57	0.00	0.00	0.00	-1.27	-5.62	1.03	-1.09	0.79	-8.83	2.74	0.84	0.00	0.00	0.00	0.00	1.26	-2.09	-6.02	-3.10	-2.69	8.84	0.27	0.30	0.00	0.00	0.00	0.00	9.12	-2.08	22.71
8.33	102.67	-73.04	0.09	0.71	-26.76	-4.05	-2.29	4.89	0.00	1.61	0.00	1.30	33.02	1.02	-0.08	-3.62	-5.28	0.00	5.41	0.00	-6.97	28.90	4.05	0.78	-0.17	-0.59	0.00	0.00	0.00	-1.26	-5.64	1.03	-1.11	0.80	-8.83	2.76	0.83	0.00	0.00	0.00	0.00	1.29	-2.10	-5.97	-3.13	-2.70	8.81	0.28	0.30	0.00	0.00	0.00	0.00	9.15	-2.14	22.74
8.29	102.67	-72.99	0.09	0.71	-26.76	-4.05	-2.28	4.87	0.00	1.61	0.00	1.28	32.99	1.01	-0.07	-3.61	-5.29	0.00	5.41	0.00	-6.98	28.92	4.03	0.78	-0.17	-0.61	0.00	0.00	0.00	-1.24	-5.65	1.04	-1.13	0.82	-8.83	2.76	0.83	0.00	0.00	0.00	0.00	1.31	-2.13	-5.94	-3.16	-2.69	8.79	0.27	0.30	0.00	0.00	0.00	0.00	9.15	-2.13	22.76
8.27	102.68	-72.97	0.09	0.71	-26.76	-4.06	-2.28	4.89	0.00	1.61	0.00	1.29	32.98	1.00	-0.07	-3.62	-5.30	0.00	5.43	0.00	-6.96	28.90	4.03	0.78	-0.17	-0.63	0.00	0.00	0.00	-1.23	-5.66	1.04	-1.16	0.84	-8.81	2.75	0.83	0.00	0.00	0.00	0.00	1.26	-2.07	-5.93	-3.17	-2.74	8.77	0.20	0.38	0.00	0.00	0.00	0.00	9.15	-2.13	22.78
8.26	102.69	-72.97	0.12	0.74	-26.78	-4.06	-2.29	4.89	0.00	1.60	0.00	1.28	33.00	1.01	-0.07	-3.61	-5.32	0.00	5.44	0.00	-6.96	28.91	4.05	0.78	-0.17	-0.64	0.00	0.00	0.00	-1.24	-5.68	1.04	-1.16	0.85	-8.79	2.75	0.83	0.00	0.00	0.00	0.00	1.28	-2.08	-5.91	-3.19	-2.73	8.74	0.21	0.37	0.00	0.00	0.00	0.00	9.19	-2.15	22.78
8.21	102.70	-72.88	0.12	0.74	-26.78	-4.06	-2.29	4.91	0.00	1.57	0.00	1.29	33.03	1.01	-0.08	-3.64	-5.31	0.00	5.50	0.00	-6.95	28.84	4.05	0.79	-0.17	-0.66	0.00	0.00	0.00	-1.22	-5.67	1.04	-1.19	0.85	-8.79	2.75	0.82	0.00	0.00	0.00	0.00	1.31	-2.08	-5.89	-3.24	-2.75	8.72	0.21	0.38	0.00	0.00	0.00	0.00	9.18	-2.15	22.81
8.22	102.70	-72.89	0.12	0.74	-26.78	-4.06	-2.29	4.93	0.00	1.57	0.00	1.29	33.05	1.02	-0.08	-3.64	-5.33	0.00	5.52	0.00	-6.94	28.85	4.07	0.77	-0.17	-0.68	0.00	0.00	0.00	-1.24	-5.65	1.07	-1.19	0.84	-8.80	2.74	0.81	0.00	0.00	0.00	0.00	1.27	-2.09	-5.88	-3.24	-2.77	8.73	0.29	0.31	0.00	0.00	0.00	0.00	9.20	-2.14	22.82
8.21	102.71	-72.87	0.14	0.75	-26.79	-4.07	-2.28	4.94	0.00	1.55	0.00	1.31	33.09	1.02	-0.08	-3.64	-5.34	0.00	5.55	0.00	-6.95	28.80	4.07	0.76	-0.16	-0.70	0.00	0.00	0.00	-1.24	-5.64	1.09	-1.20	0.86	-8.80	2.75	0.81	0.00	0.00	0.00	0.00	1.26	-2.09	-5.88	-3.25	-2.77	8.73	0.29	0.31	0.00	0.00	0.00	0.00	9.24	-2.12	22.85
8.17	102.71	-72.85	0.14	0.75	-26.79	-4.07	-2.28	4.94	0.00	1.54	0.00	1.29	33.09	1.03	-0.08	-3.65	-5.36	0.00	5.58	0.00	-6.95	28.80	4.09	0.76	-0.16	-0.72	0.00	0.00	0.00	-1.23	-5.64	1.11	-1.22	0.88	-8.81	2.75	0.82	0.00	0.00	0.00	0.00	1.24	-2.05	-5.89	-3.29	-2.78	8.72	0.30	0.31	0.00	0.00	0.00	0.00	9.24	-2.12	22.87
8.16	102.72	-72.84	0.14	0.75	-26.79	-4.07	-2.28	4.94	0.00	1.51	0.00	1.30	33.10	1.01	-0.08	-3.65	-5.38	0.00	5.62	0.00	-6.95	28.75	4.08	0.77	-0.17	-0.74	0.00	0.00	0.00	-1.19	-5.66	1.11	-1.28	0.92	-8.84	2.75	0.83	0.00	0.00	0.00	0.00	1.27	-2.08	-5.91	-3.35	-2.78	8.72	0.31	0.32	0.00	0.00	0.00	0.00	9.23	-2.11	22.88
8.17	102.72	-72.81	0.16	0.74	-26.79	-4.07	-2.26	4.93	0.00	1.49	0.00	1.29	33.10	1.01	-0.09	-3.66	-5.39	0.00	5.66	0.00	-6.95	28.79	4.07	0.79	-0.16	-0.76	0.00	0.00	0.00	-1.15	-5.64	1.10	-1.32	0.94	-8.86	2.75	0.82	0.00	0.00	0.00	0.00	1.31	-2.06	-5.93	-3.41	-2.80	8.72	0.31	0.31	0.00	0.00	0.00	0.00	9.24	-2.09	22.88
8.13	102.73	-72.79	0.16	0.74	-26.79	-4.08	-2.27	4.95	0.00	1.49	0.00	1.29	33.11	1.00	-0.08	-3.66	-5.41	0.00	5.68	0.00	-6.95	28.78	4.07	0.78	-0.15	-0.77	0.00	0.00	0.00	-1.18	-5.63	1.12	-1.31	0.94	-8.89	2.75	0.83	0.00	0.00	0.00	0.00	1.31	-2.07	-5.91	-3.42	-2.78	8.73	0.31	0.32	0.00	0.00	0.00	0.00	9.25	-2.09	22.89
8.12	102.74	-72.78	0.16	0.74	-26.79	-4.08	-2.25	4.94	0.00	1.45	0.00	1.29	33.14	1.01	-0.08	-3.66	-5.42	0.00	5.72	0.00	-6.95	28.79	4.05	0.79	-0.17	-0.79	0.00	0.00	0.00	-1.16	-5.65	1.12	-1.37	0.99	-8.91	2.75	0.83	0.00	0.00	0.00	0.00	1.34	-2.07	-5.92	-3.47	-2.78	8.74	0.31	0.31	0.00	0.00	0.00	0.00	9.24	-2.07	22.91
8.09	102.74	-72.74	0.17	0.76	-26.79	-4.08	-2.23	4.95	0.00	1.43	0.00	1.30	33.15	1.00	-0.08	-3.67	-5.43	0.00	5.76	0.00	-6.93	28.72	4.06	0.80	-0.16	-0.80	0.00	0.00	0.00	-1.14	-5.63	1.12	-1.40	1.00	-8.93	2.75	0.83	0.00	0.00	0.00	0.00	1.37	-2.08	-5.93	-3.52	-2.77	8.75	0.31	0.32	0.00	0.00	0.00	0.00	9.27	-2.06	22.91
8.07	102.75	-72.69	0.17	0.76	-26.79	-4.08	-2.24	4.95	0.00	1.42	0.00	1.31	33.15	0.99	-0.08	-3.66	-5.44	0.00	5.78	0.00	-6.93	28.72	4.05	0.80	-0.16	-0.81	0.00	0.00	0.00	-1.15	-5.62	1.11	-1.41	1.00	-8.95	2.75	0.83	0.00	0.00	0.00	0.00	1.34	-2.06	-5.94	-3.51	-2.79	8.75	0.31	0.32	0.00	0.00	0.00	0.00	9.28	-2.06	22.92
8.07	102.76	-72.67	0.17	0.76	-26.79	-4.08	-2.22	4.93	0.00	1.38	0.00	1.32	33.18	0.98	-0.09	-3.67	-5.44	0.00	5.82	0.00	-6.95	28.69	4.06	0.80	-0.16	-0.82	0.00	0.00	0.00	-1.15	-5.61	1.13	-1.44	1.01	-8.97	2.75	0.83	0.00	0.00	0.00	0.00	1.41	-2.13	-5.91	-3.56	-2.75	8.74	0.32	0.33	0.00	0.00	0.00	0.00	9.28	-2.06	22.93
8.06	102.76	-72.65	0.17	0.77	-26.82	-4.09	-2.20	4.93	0.00	1.34	0.00	1.32	33.20	0.98	-0.09	-3.66	-5.46	0.00	5.86	0.00	-6.96	28.70	4.06	0.80	-0.17	-0.84	0.00	0.00	0.00	-1.13	-5.62	1.13	-1.47	1.02	-8.98	2.75	0.83	0.00	0.00	0.00	0.00	1.42	-2.14	-5.91	-3.60	-2.75	8.73	0.32	0.32	0.00	0.00	0.00	0.00	9.33	-2.04	22.98
8.04	102.77	-72.57	0.17	0.77	-26.82	-4.09	-2.20	4.94	0.00	1.31	0.00	1.31	33.23	0.99	-0.09	-3.67	-5.47	0.00	5.90	0.00	-6.96	28.68	4.06	0.79	-0.16	-0.85	0.00	0.00	0.00	-1.14	-5.60	1.16	-1.46	1.03	-8.98	2.77	0.84	0.00	0.00	0.00	0.00	1.39	-2.13	-5.90	-3.60	-2.75	8.75	0.32	0.32	0.00	0.00	0.00	0.00	9.34	-2.04	22.99
8.03	102.78	-72.55	0.17	0.77	-26.82	-4.09	-2.18	4.93	0.00	1.26	0.00	1.30	33.22	0.99	-0.09	-3.68	-5.48	0.00	5.96	0.00	-6.97	28.62	4.05	0.78	-0.16	-0.86	0.00	0.00	0.00	-1.16	-5.60	1.18	-1.45	1.02	-9.00	2.76	0.83	0.00	0.00	0.00	0.00	1.38	-2.11	-5.89	-3.59	-2.78	8.76	0.31	0.31	0.00	0.00	0.00	0.00	9.35	-2.04	23.00
8.03	102.79	-72.53	0.17	0.77	-26.82	-4.09	-2.18	4.97	0.00	1.26	0.00	1.30	33.24	1.00	-0.08	-3.67	-5.49	0.00	5.99	0.00	-6.98	28.59	4.05	0.76	-0.15	-0.88	0.00	0.00	0.00	-1.19	-5.60	1.20	-1.44	1.02	-9.00	2.76	0.84	0.00	0.00	0.00	0.00	1.36	-2.10	-5.88	-3.59	-2.78	8.77	0.31	0.32	0.00	0.00	0.00	0.00	9.38	-2.02	23.01
8.01	102.80	-72.49	0.17	0.77	-26.82	-4.09	-2.15	4.97	0.00	1.21	0.00	1.30	33.25	0.99	-0.09	-3.66	-5.50	0.00	6.04	0.00	-6.98	28.54	4.07	0.76	-0.15	-0.89	0.00	0.00	0.00	-1.20	-5.60	1.20	-1.44	1.03	-9.00	2.75	0.84	0.00	0.00	0.00	0.00	1.39	-2.15	-5.87	-3.62	-2.75	8.79	0.32	0.33	0.00	0.00	0.00	0.00	9.39	-2.02	23.02
7.98	102.80	-72.44	0.17	0.77	-26.82	-4.09	-2.12	4.99	0.00	1.16	0.00	1.33	33.42	1.01	-0.09	-3.67	-5.52	0.00	6.10	0.00	-6.99	28.52	4.05	0.75	-0.15	-0.90	0.00	0.00	0.00	-1.23	-5.59	1.22	-1.43	1.03	-9.00	2.76	0.84	0.00	0.00	0.00	0.00	1.38	-2.16	-5.86	-3.63	-2.73	8.80	0.33	0.33	0.00	0.00	0.00	0.00	9.40	-2.03	23.04
7.98	102.81	-72.42	0.17	0.77	-26.82	-4.09	-2.12	4.99	0.00	1.14	0.00	1.34	33.43	1.00	-0.08	-3.66	-5.52	0.00	6.11	0.00	-6.99	28.50	4.05	0.72	-0.15	-0.91	0.00	0.00	0.00	-1.28	-5.59	1.27	-1.40	1.02	-8.99	2.76	0.83	0.00	0.00	0.00	0.00	1.34	-2.16	-5.84	-3.62	-2.72	8.82	0.32	0.32	0.00	0.00	0.00	0.00	9.42	-2.02	23.05
